<svg width="29" height="29" viewBox="0 0 29 29" fill="none" xmlns="http://www.w3.org/2000/svg">
<g clip-path="url(#clip0_54_4002)">
<path d="M18.6496 8.72274C17.6166 8.72274 16.7763 7.88238 16.7763 6.84945V0.694336H7.1957C5.57252 0.694336 4.25195 2.0149 4.25195 3.63809V25.1542C4.25195 26.7774 5.57252 28.098 7.1957 28.098H22.1821C23.8053 28.098 25.1258 26.7774 25.1258 25.1542V8.72274H18.6496ZM8.64082 19.9625H12.533C12.9764 19.9625 13.3358 20.322 13.3358 20.7654C13.3358 21.2087 12.9764 21.5682 12.533 21.5682H8.64082C8.19743 21.5682 7.83798 21.2087 7.83798 20.7654C7.83798 20.322 8.19743 19.9625 8.64082 19.9625ZM7.83798 16.4835C7.83798 16.0402 8.19743 15.6807 8.64082 15.6807H20.4158C20.8592 15.6807 21.2187 16.0402 21.2187 16.4835C21.2187 16.9269 20.8592 17.2864 20.4158 17.2864H8.64082C8.19743 17.2864 7.83798 16.9269 7.83798 16.4835ZM20.4158 11.3989C20.8592 11.3989 21.2187 11.7583 21.2187 12.2017C21.2187 12.6451 20.8592 13.0046 20.4158 13.0046H8.64082C8.19743 13.0046 7.83798 12.6451 7.83798 12.2017C7.83798 11.7583 8.19743 11.3989 8.64082 11.3989H20.4158Z" fill="#FFEF88"/>
<path d="M18.3809 6.84949C18.3809 6.99705 18.5009 7.11711 18.6485 7.11711H24.7669C24.62 6.84596 24.4311 6.59692 24.2041 6.38213L19.0433 1.49968C18.843 1.31021 18.6199 1.15216 18.3809 1.02734V6.84949H18.3809Z" fill="#FFEF88"/>
</g>
<defs>
<clipPath id="clip0_54_4002">
<rect width="27.4036" height="27.4036" fill="white" transform="translate(0.986328 0.694336)"/>
</clipPath>
</defs>
</svg>
