<svg width="21" height="21" viewBox="0 0 21 21" fill="none" xmlns="http://www.w3.org/2000/svg">
<path d="M14.8276 20.475H2.4355C1.38231 20.475 0.525391 19.6182 0.525391 18.5649V6.1728C0.525391 5.11951 1.38231 4.2627 2.4355 4.2627H7.70425C8.17307 4.2627 8.55318 4.64281 8.55318 5.11163C8.55318 5.58045 8.17307 5.96057 7.70425 5.96057H2.4355C2.3185 5.96057 2.22326 6.0557 2.22326 6.1728V18.5649C2.22326 18.682 2.3185 18.7771 2.4355 18.7771H14.8276C14.9446 18.7771 15.0398 18.682 15.0398 18.5649V13.2961C15.0398 12.8273 15.4199 12.4472 15.8887 12.4472C16.3575 12.4472 16.7377 12.8273 16.7377 13.2961V18.5649C16.7377 19.6182 15.8807 20.475 14.8276 20.475Z" fill="#C6F5F3"/>
<path d="M20.1771 4.26659L18.5811 5.86471L15.1387 2.42228L16.7347 0.824153C17.1337 0.425152 17.781 0.425152 18.18 0.824153L20.1771 2.82128C20.5761 3.22028 20.5761 3.86759 20.1771 4.26659Z" fill="#C6F5F3"/>
<path d="M17.6802 6.76469L10.0844 14.3584L5.62109 15.3793L6.64194 10.916L14.2378 3.32227L17.6802 6.76469Z" fill="#C6F5F3"/>
</svg>
