<svg width="23" height="22" viewBox="0 0 23 22" fill="none" xmlns="http://www.w3.org/2000/svg">
<path d="M19.0697 3.17414C14.8373 -1.05739 7.9542 -1.05739 3.72178 3.17414C-0.508821 7.40567 -0.508821 14.2906 3.72178 18.5221C5.83799 20.6374 8.61708 21.6946 11.3962 21.6946C14.1754 21.6946 16.9535 20.6374 19.0697 18.5221C23.3013 14.2906 23.3013 7.40567 19.0697 3.17414ZM15.8719 14.0455C16.2255 14.3991 16.2255 14.9706 15.8719 15.3242C15.6955 15.5006 15.464 15.5892 15.2325 15.5892C15.001 15.5892 14.7694 15.5006 14.5931 15.3242L11.3962 12.1264L8.20015 15.3233C8.02291 15.4997 7.79137 15.5883 7.56076 15.5883C7.32925 15.5883 7.09771 15.4997 6.92136 15.3233C6.56777 14.9697 6.56777 14.3973 6.92136 14.0446L10.1174 10.8476L6.92047 7.65073C6.56687 7.29714 6.56687 6.72468 6.92047 6.37198C7.27317 6.01839 7.84563 6.01839 8.19922 6.37198L11.3961 9.56889L14.593 6.37198C14.9466 6.01839 15.5182 6.01839 15.8718 6.37198C16.2254 6.72468 16.2254 7.29714 15.8718 7.65073L12.6749 10.8476L15.8719 14.0455Z" fill="#FF6B6B"/>
</svg>
