<svg width="21" height="21" viewBox="0 0 21 21" fill="none" xmlns="http://www.w3.org/2000/svg">
<path fill-rule="evenodd" clip-rule="evenodd" d="M15.75 0.65625C16.0564 0.65625 16.322 0.868242 16.3899 1.16699L16.753 2.76378C16.9209 3.50234 17.4977 4.07905 18.2362 4.24699L19.833 4.61009C20.1317 4.67801 20.3438 4.94363 20.3438 5.25C20.3438 5.55637 20.1317 5.82199 19.833 5.88991L18.2362 6.25301C17.4977 6.42095 16.9209 6.99766 16.753 7.73624L16.3899 9.33302C16.322 9.63175 16.0564 9.84375 15.75 9.84375C15.4436 9.84375 15.178 9.63175 15.1101 9.33302L14.747 7.73624C14.5791 6.99766 14.0023 6.42095 13.2638 6.25301L11.667 5.88991C11.3683 5.82199 11.1562 5.55637 11.1562 5.25C11.1562 4.94363 11.3683 4.67801 11.667 4.61009L13.2638 4.24699C14.0023 4.07905 14.5791 3.50234 14.747 2.76378L15.1101 1.16699C15.178 0.868242 15.4436 0.65625 15.75 0.65625Z" fill="#FFEF88"/>
<path d="M0.65625 7.875C0.65625 7.51255 0.950063 7.21875 1.3125 7.21875H8.53125C8.8937 7.21875 9.1875 7.51255 9.1875 7.875C9.1875 8.23745 8.8937 8.53125 8.53125 8.53125H1.3125C0.950063 8.53125 0.65625 8.23745 0.65625 7.875Z" fill="#FFEF88"/>
<path d="M1.3125 11.1562C0.950063 11.1562 0.65625 11.4501 0.65625 11.8125C0.65625 12.1749 0.950063 12.4688 1.3125 12.4688H19.6875C20.0499 12.4688 20.3438 12.1749 20.3438 11.8125C20.3438 11.4501 20.0499 11.1562 19.6875 11.1562H1.3125Z" fill="#FFEF88"/>
<path d="M0.65625 15.75C0.65625 15.3876 0.950063 15.0938 1.3125 15.0938H19.6875C20.0499 15.0938 20.3438 15.3876 20.3438 15.75C20.3438 16.1124 20.0499 16.4062 19.6875 16.4062H1.3125C0.950063 16.4062 0.65625 16.1124 0.65625 15.75Z" fill="#FFEF88"/>
<path d="M1.3125 19.0312C0.950063 19.0312 0.65625 19.3251 0.65625 19.6875C0.65625 20.0499 0.950063 20.3438 1.3125 20.3438H19.6875C20.0499 20.3438 20.3438 20.0499 20.3438 19.6875C20.3438 19.3251 20.0499 19.0312 19.6875 19.0312H1.3125Z" fill="#FFEF88"/>
</svg>
