<svg width="27" height="27" viewBox="0 0 27 27" fill="none" xmlns="http://www.w3.org/2000/svg">
<g clip-path="url(#clip0_54_4026)">
<path d="M16.6828 4.60437V-0.0527344H5.71138C4.28982 -0.0527344 3.11133 1.11875 3.11133 2.54011V24.3544C3.11133 25.776 4.28982 26.9473 5.71138 26.9473H21.3685C22.7899 26.9473 23.9684 25.7758 23.9684 24.3544V7.59004H19.6755C18.0185 7.59004 16.6828 6.25438 16.6828 4.60437ZM8.93992 13.3115L13.1257 8.8188C13.2328 8.70447 13.3828 8.6402 13.547 8.6402C13.7114 8.6402 13.8541 8.70447 13.9684 8.8188L18.1542 13.3115C18.3685 13.5402 18.3542 13.9044 18.1256 14.1188C18.0185 14.2187 17.8755 14.2688 17.74 14.2688C17.5898 14.2688 17.4328 14.2045 17.3185 14.0902L14.1114 10.6616V18.8258C14.1114 19.1401 13.8543 19.3972 13.54 19.3972C13.2256 19.3972 12.9685 19.1401 12.9685 18.8258V10.6616L9.77564 14.0902C9.5614 14.3186 9.197 14.333 8.96855 14.1188C8.7399 13.9044 8.72569 13.5474 8.93992 13.3115ZM19.9898 22.5901C19.9898 22.9044 19.7328 23.1615 19.4184 23.1615H7.66132C7.34697 23.1615 7.08989 22.9044 7.08989 22.5901C7.08989 22.2757 7.34697 22.0187 7.66132 22.0187H19.4256C19.74 22.0187 19.9898 22.2759 19.9898 22.5901Z" fill="#C6F5F3"/>
<path d="M19.6762 6.44704H23.1832L17.8262 0.825684V4.60423C17.8262 5.62575 18.6475 6.44704 19.6762 6.44704Z" fill="#C6F5F3"/>
</g>
<defs>
<clipPath id="clip0_54_4026">
<rect width="27" height="27" fill="white"/>
</clipPath>
</defs>
</svg>
