<svg width="21" height="21" viewBox="0 0 21 21" fill="none" xmlns="http://www.w3.org/2000/svg">
<g clip-path="url(#clip0_420_5374)">
<path d="M16.1645 0H4.83553C3.55419 0.00364537 2.32637 0.514272 1.42032 1.42032C0.514272 2.32637 0.00364537 3.55419 0 4.83553L0 16.1645C0.00364537 17.4458 0.514272 18.6736 1.42032 19.5797C2.32637 20.4857 3.55419 20.9964 4.83553 21H16.1645C17.4458 20.9964 18.6736 20.4857 19.5797 19.5797C20.4857 18.6736 20.9964 17.4458 21 16.1645V4.83553C20.9964 3.55419 20.4857 2.32637 19.5797 1.42032C18.6736 0.514272 17.4458 0.00364537 16.1645 0ZM14.8119 11.4049H11.6246C11.6001 11.4047 11.5757 11.4094 11.553 11.4188C11.5303 11.4281 11.5097 11.4418 11.4923 11.4592C11.475 11.4765 11.4612 11.4971 11.4519 11.5199C11.4426 11.5426 11.4379 11.5669 11.4381 11.5914V14.7829C11.4381 15.0317 11.3393 15.2703 11.1633 15.4462C10.9874 15.6222 10.7488 15.721 10.5 15.721C10.2512 15.721 10.0126 15.6222 9.83667 15.4462C9.66074 15.2703 9.56191 15.0317 9.56191 14.7829V11.5914C9.56209 11.5669 9.55739 11.5426 9.54808 11.5199C9.53878 11.4971 9.52504 11.4765 9.50769 11.4592C9.49033 11.4418 9.4697 11.4281 9.44699 11.4188C9.42428 11.4094 9.39994 11.4047 9.37539 11.4049H6.18809C6.0649 11.4049 5.94291 11.3807 5.8291 11.3335C5.71528 11.2864 5.61187 11.2173 5.52476 11.1302C5.43765 11.0431 5.36855 10.9396 5.32141 10.8258C5.27426 10.712 5.25 10.59 5.25 10.4668C5.25 10.3436 5.27426 10.2217 5.32141 10.1079C5.36855 9.99404 5.43765 9.89062 5.52476 9.80351C5.61187 9.7164 5.71528 9.6473 5.8291 9.60016C5.94291 9.55301 6.0649 9.52875 6.18809 9.52875H9.37539C9.39994 9.52893 9.42428 9.52423 9.44699 9.51493C9.4697 9.50562 9.49033 9.49189 9.50769 9.47453C9.52504 9.45718 9.53878 9.43654 9.54808 9.41383C9.55739 9.39112 9.56209 9.36678 9.56191 9.34224V6.15493C9.56191 5.90614 9.66074 5.66753 9.83667 5.4916C10.0126 5.31568 10.2512 5.21684 10.5 5.21684C10.7488 5.21684 10.9874 5.31568 11.1633 5.4916C11.3393 5.66753 11.4381 5.90614 11.4381 6.15493V9.34224C11.4373 9.36713 11.4416 9.39191 11.4507 9.4151C11.4597 9.4383 11.4734 9.45943 11.4908 9.47723C11.5082 9.49503 11.529 9.50913 11.552 9.5187C11.575 9.52826 11.5997 9.53309 11.6246 9.53289H14.8119C15.0607 9.53289 15.2993 9.63173 15.4752 9.80766C15.6512 9.98358 15.75 10.2222 15.75 10.471C15.75 10.7198 15.6512 10.9584 15.4752 11.1343C15.2993 11.3102 15.0607 11.4091 14.8119 11.4091V11.4049Z" fill="white"/>
</g>
<defs>
<clipPath id="clip0_420_5374">
<rect width="21" height="21" fill="white"/>
</clipPath>
</defs>
</svg>
