<svg width="24" height="25" viewBox="0 0 24 25" fill="none" xmlns="http://www.w3.org/2000/svg">
<g clip-path="url(#clip0_83_141)">
<path d="M15.4688 7.38477C14.5641 7.38477 13.8281 6.64878 13.8281 5.74414V0.353516H5.4375C4.01592 0.353516 2.85938 1.51006 2.85938 2.93164V21.7754C2.85938 23.197 4.01592 24.3535 5.4375 24.3535H18.5625C19.9841 24.3535 21.1406 23.197 21.1406 21.7754V7.38477H15.4688ZM6.70312 17.2285H10.1119C10.5002 17.2285 10.815 17.5433 10.815 17.9316C10.815 18.32 10.5002 18.6348 10.1119 18.6348H6.70312C6.31481 18.6348 6 18.32 6 17.9316C6 17.5433 6.31481 17.2285 6.70312 17.2285ZM6 14.1816C6 13.7933 6.31481 13.4785 6.70312 13.4785H17.0156C17.4039 13.4785 17.7188 13.7933 17.7188 14.1816C17.7188 14.57 17.4039 14.8848 17.0156 14.8848H6.70312C6.31481 14.8848 6 14.57 6 14.1816ZM17.0156 9.72852C17.4039 9.72852 17.7188 10.0433 17.7188 10.4316C17.7188 10.82 17.4039 11.1348 17.0156 11.1348H6.70312C6.31481 11.1348 6 10.82 6 10.4316C6 10.0433 6.31481 9.72852 6.70312 9.72852H17.0156Z" fill="#FFEF88"/>
<path d="M15.2341 5.74452C15.2341 5.87376 15.3393 5.9789 15.4685 5.9789H20.827C20.6983 5.74143 20.5329 5.52332 20.3341 5.33521L15.8143 1.05918C15.6388 0.893242 15.4435 0.75482 15.2342 0.645508V5.74452H15.2341Z" fill="#FFEF88"/>
</g>
<defs>
<clipPath id="clip0_83_141">
<rect width="24" height="24" fill="white" transform="translate(0 0.353516)"/>
</clipPath>
</defs>
</svg>
