<svg width="15" height="16" viewBox="0 0 15 16" fill="none" xmlns="http://www.w3.org/2000/svg">
<path d="M1.55103 15.291C1.32521 15.29 1.10902 15.1994 0.949866 15.0392C0.790713 14.879 0.701586 14.6622 0.702028 14.4364C0.704005 14.3505 0.717404 14.2653 0.741871 14.183L1.35347 11.9707C1.37904 11.889 1.35015 11.8067 1.31263 11.7416L1.30533 11.7283C1.30267 11.724 1.29006 11.7064 1.28109 11.6935C1.27213 11.6805 1.26183 11.6666 1.25254 11.653L1.24623 11.644C0.473974 10.4735 0.062387 9.10206 0.0625355 7.69979C0.056559 5.78762 0.804625 3.98104 2.16961 2.61041C3.58207 1.19529 5.47132 0.416017 7.49406 0.416017C9.20999 0.415169 10.875 0.998835 12.2149 2.07086C13.5247 3.12506 14.4352 4.5943 14.7785 6.21063C14.8842 6.70164 14.9374 7.2025 14.9372 7.70477C14.9372 9.66143 14.1855 11.4992 12.8202 12.8801C11.4429 14.2747 9.59349 15.0403 7.61293 15.0403C6.91566 15.0403 6.02349 14.8624 5.59517 14.7415C5.07986 14.5974 4.59144 14.4095 4.53765 14.3896C4.48073 14.3678 4.42031 14.3565 4.35935 14.3564C4.29324 14.3559 4.22773 14.3689 4.16677 14.3945L4.13855 14.4055L1.898 15.215C1.78796 15.2613 1.67036 15.2871 1.55103 15.291Z" fill="#C6F5F3"/>
</svg>
