<svg width="16" height="16" viewBox="0 0 16 16" fill="none" xmlns="http://www.w3.org/2000/svg">
<path d="M11.708 6.54566L14.1185 7.43107L12.1138 12.8893C11.9262 13.4026 10.9089 15.009 10.2004 15.3367L10.0285 15.8056C9.9847 15.9244 9.87215 15.9988 9.75272 15.9988C9.71895 15.9988 9.68519 15.9926 9.65142 15.9807C9.49948 15.9244 9.42069 15.7562 9.47696 15.603L9.63954 15.1597C9.28 14.4612 9.54825 12.4328 9.70582 12.0038L11.708 6.54566ZM15.1965 0.770448C14.5337 0.527834 13.7577 1.02932 13.5357 1.63523L12.0838 5.59083L14.4937 6.475L15.9437 2.52002C16.1263 2.02479 15.8606 1.01369 15.1965 0.770448ZM10.8351 6.34118C10.9026 6.3662 10.972 6.37808 11.0396 6.37808C11.2784 6.37808 11.5029 6.23176 11.5911 5.99415L13.123 1.86221C13.2362 1.55769 13.0805 1.21941 12.776 1.10686C12.469 0.995553 12.1332 1.14938 12.02 1.45389L10.4881 5.58583C10.3749 5.89035 10.5306 6.22863 10.8351 6.34118ZM8.36895 14.0892C8.21075 13.9397 8.01378 13.7534 7.69488 13.6115C7.43226 13.4945 7.17651 13.4889 6.98955 13.4845C6.97016 13.4845 6.94765 13.4839 6.92514 13.4833C6.80821 13.1631 6.57123 12.9618 6.21544 12.883C5.74459 12.7836 5.36879 13.0056 5.10804 13.1769C5.13118 13.0456 5.16932 12.8893 5.19746 12.7767C5.2875 12.414 5.38004 12.0389 5.31126 11.6874C5.25686 11.4098 5.02238 11.2035 4.73974 11.1835C4.01128 11.1428 3.416 11.5349 2.89138 11.8894C2.34049 12.2615 1.9872 12.4834 1.63579 12.3578C1.20684 12.2052 1.16369 11.044 1.37004 10.0098C1.5545 9.07809 1.89779 7.34353 2.77757 6.55566C3.07396 6.29054 3.50291 6.00353 3.85558 6.14297C4.27015 6.30554 4.61281 6.98836 4.68909 7.80187C4.72098 8.14515 5.0205 8.39715 5.37004 8.36588C5.71395 8.33399 5.96657 8.02885 5.93405 7.68494C5.81025 6.35932 5.1887 5.32258 4.31267 4.97805C3.78805 4.7742 2.95391 4.71917 1.94281 5.62397C0.842917 6.60881 0.436476 8.27897 0.141963 9.76654C-0.0056062 10.5094 -0.36515 12.9743 1.21559 13.5364C2.17854 13.8797 2.96078 13.3501 3.5892 12.9261C3.70426 12.8486 3.81744 12.7723 3.92749 12.7042C3.82306 13.1575 3.75803 13.6427 4.03191 14.0517C4.44023 14.6657 5.01737 14.7326 5.74647 14.2524C5.7746 14.2343 5.80712 14.213 5.83776 14.1917C5.90529 14.3331 6.02472 14.4888 6.2417 14.5951C6.50432 14.7239 6.76694 14.7301 6.95828 14.7351C7.0402 14.737 7.15212 14.7395 7.18589 14.7545C7.30344 14.8064 7.37285 14.8702 7.50792 14.9977C7.60921 15.0934 7.71614 15.1928 7.85183 15.2954C7.96438 15.3798 8.09569 15.4198 8.22575 15.4198C8.41584 15.4198 8.60406 15.3329 8.72661 15.1697C8.93359 14.8933 8.87731 14.5013 8.60093 14.2943C8.51026 14.2243 8.43835 14.1548 8.36895 14.0892Z" fill="#FFEF88"/>
</svg>
